<!-- <svg xmlns="http://www.w3.org/2000/svg" xmlns:xlink="http://www.w3.org/1999/xlink" version="1.1" id="Layer_1" x="0px" y="0px" viewBox="0 0 5000 5000" style="enable-background:new 0 0 5000 5000;" xml:space="preserve" xmlns:svg="http://www.w3.org/2000/svg" xmlns:rdf="http://www.w3.org/1999/02/22-rdf-syntax-ns#" xmlns:cc="http://creativecommons.org/ns#" xmlns:dc="http://purl.org/dc/elements/1.1/">
<style type="text/css">
	.st0{fill:none;stroke:#1D1D1B;stroke-width:0.25;stroke-miterlimit:10;}
	.st1{fill:#1D1D1B;}
</style>
<rect fill="none" class="st0" width="5000" height="5000"/>
<g>
	<path class="st1" d="M3001.92,585.25l-1536.79-4.61c-485.32-1.45-879.92,390.79-881.38,876.11l-8.54,2848.17l217.1,0.65   l8.23-2744.79c1.27-422.51,344.81-764,767.32-762.73l1433.4,4.3l-1.01,335.29l769.97-441.54L3002.92,250L3001.92,585.25z"/>
	<path class="st1" d="M1998.08,4414.75l1536.79,4.61c485.32,1.46,879.92-390.79,881.38-876.11l8.54-2848.17l-217.1-0.65   l-8.23,2744.79c-1.27,422.51-344.81,764-767.32,762.73l-1433.4-4.3l1.01-335.29l-769.97,441.54l767.31,446.1L1998.08,4414.75z"/>
</g>
<metadata xmlns=""><rdf:RDF><cc:Work rdf:about=""><dc:title>Black arrows forming a continuous loop in a square configuration</dc:title><dc:description>Black arrows forming a continuous loop in a square configuration</dc:description><dc:subject><rdf:Bag><rdf:li>arrows</rdf:li><rdf:li>black</rdf:li><rdf:li>continuous</rdf:li><rdf:li>loop</rdf:li><rdf:li>square</rdf:li><rdf:li>directional</rdf:li><rdf:li>navigation</rdf:li><rdf:li>symbol</rdf:li><rdf:li>graphic</rdf:li><rdf:li>design</rdf:li><rdf:li>rotate</rdf:li><rdf:li>vector</rdf:li><rdf:li>icon</rdf:li><rdf:li>movement</rdf:li><rdf:li>clockwise</rdf:li><rdf:li>counterclockwise</rdf:li><rdf:li>flow</rdf:li><rdf:li>process</rdf:li><rdf:li>interface</rdf:li><rdf:li>cycle</rdf:li><rdf:li>reload</rdf:li><rdf:li>update</rdf:li><rdf:li>connectivity</rdf:li><rdf:li>structure</rdf:li><rdf:li>framework</rdf:li><rdf:li>guide</rdf:li><rdf:li>path</rdf:li><rdf:li>arrowhead</rdf:li><rdf:li>simple</rdf:li><rdf:li>clarity</rdf:li></rdf:Bag></dc:subject></cc:Work></rdf:RDF></metadata></svg> -->

<svg xmlns="http://www.w3.org/2000/svg" xmlns:xlink="http://www.w3.org/1999/xlink" version="1.1" id="Layer_1" x="0px" y="0px" viewBox="0 0 5000 5000" style="enable-background:new 0 0 5000 5000;" xml:space="preserve" xmlns:svg="http://www.w3.org/2000/svg" xmlns:rdf="http://www.w3.org/1999/02/22-rdf-syntax-ns#" xmlns:cc="http://creativecommons.org/ns#" xmlns:dc="http://purl.org/dc/elements/1.1/">
    <style type="text/css">
        .st0{fill:none;stroke:#1D1D1B;stroke-width:0.25;stroke-miterlimit:10;}
        .st1{fill:white;}
    </style>
    <rect class="st0" width="5000" height="5000" fill="none"/> <!-- Transparent background -->
    <g>
        <path class="st1" d="M3001.92,585.25l-1536.79-4.61c-485.32-1.45-879.92,390.79-881.38,876.11l-8.54,2848.17l217.1,0.65   l8.23-2744.79c1.27-422.51,344.81-764,767.32-762.73l1433.4,4.3l-1.01,335.29l769.97-441.54L3002.92,250L3001.92,585.25z"/>
        <path class="st1" d="M1998.08,4414.75l1536.79,4.61c485.32,1.46,879.92-390.79,881.38-876.11l8.54-2848.17l-217.1-0.65   l-8.23,2744.79c-1.27,422.51-344.81,764-767.32,762.73l-1433.4-4.3l1.01-335.29l-769.97,441.54l767.31,446.1L1998.08,4414.75z"/>
    </g>
</svg>
